<?xml version="1.0" encoding="UTF-8"?>
<svg xmlns="http://www.w3.org/2000/svg" xmlns:xlink="http://www.w3.org/1999/xlink" width="24pt" height="24pt" viewBox="0 0 24 24" version="1.1">
<g id="surface3166742">
<path style=" stroke:none;fill-rule:nonzero;fill:rgb(80%,80%,80%);fill-opacity:1;" d="M 11.878906 12.121094 L 11.878906 11.878906 L 12.121094 11.878906 L 12.121094 12.121094 Z M 11.878906 12.121094 "/>
<path style=" stroke:none;fill-rule:nonzero;fill:rgb(0%,0%,0%);fill-opacity:1;" d="M 6.398438 6.398438 C 5.625 6.398438 5 7.027344 5 7.800781 L 5 16.199219 C 5 16.972656 5.625 17.601562 6.398438 17.601562 L 17.601562 17.601562 C 18.375 17.601562 19 16.972656 19 16.199219 L 19 7.800781 C 19 7.027344 18.375 6.398438 17.601562 6.398438 Z M 7.519531 7.800781 L 16.480469 7.800781 L 12 10.601562 Z M 7.101562 9.640625 L 12 12.699219 L 16.898438 9.640625 L 16.898438 16.199219 L 7.101562 16.199219 Z M 7.101562 9.640625 "/>
</g>
</svg>
