<svg xmlns="http://www.w3.org/2000/svg" xmlns:xlink="http://www.w3.org/1999/xlink" width="200" height="200" viewBox="0 0 200 200">
  <defs>
    <style>
      .cls-1 {
        clip-path: url(#clip-logo_main_inverse);
      }

      .cls-2 {
        fill: #4e4e4e;
        stroke: #707070;
      }

      .cls-3, .cls-4, .cls-6, .cls-7, .cls-9 {
        fill: none;
      }

      .cls-3, .cls-4, .cls-6, .cls-7 {
        stroke: #fff;
      }

      .cls-4, .cls-6, .cls-7 {
        stroke-linecap: round;
      }

      .cls-4 {
        stroke-linejoin: round;
        stroke-width: 0.8px;
      }

      .cls-5 {
        fill: #fff;
        font-size: 154px;
        font-family: AnandaNeptouch, Ananda Neptouch;
        letter-spacing: -0.052em;
      }

      .cls-6 {
        stroke-width: 3px;
      }

      .cls-7 {
        stroke-width: 2px;
      }

      .cls-8 {
        stroke: none;
      }
    </style>
    <clipPath id="clip-logo_main_inverse">
      <rect width="200" height="200"/>
    </clipPath>
  </defs>
  <g id="logo_main_inverse" data-name="logo main inverse" class="cls-1">
    <g id="base" class="cls-2">
      <rect class="cls-8" width="200" height="200"/>
      <rect class="cls-9" x="0.5" y="0.5" width="199" height="199"/>
    </g>
    <g id="Rectangle_outer" data-name="Rectangle outer" class="cls-3" transform="translate(13 12)">
      <rect class="cls-8" width="174" height="174"/>
      <rect class="cls-9" x="0.5" y="0.5" width="173" height="173"/>
    </g>
    <g id="Rectangle_inner" data-name="Rectangle inner" class="cls-4" transform="translate(18 17)">
      <path class="cls-8" d="M0,0H156a9,9,0,0,1,9,9V165a0,0,0,0,1,0,0H9a9,9,0,0,1-9-9V0A0,0,0,0,1,0,0Z"/>
      <path class="cls-9" d="M.8.4H156A8.6,8.6,0,0,1,164.6,9V164.2a.4.4,0,0,1-.4.4H9A8.6,8.6,0,0,1,.4,156V.8A.4.4,0,0,1,.8.4Z"/>
    </g>
    <text id="Ak" class="cls-5" transform="translate(99 146)"><tspan x="-69.3" y="0">Ak</tspan></text>
    <line id="Line_above" data-name="Line above" class="cls-6" x2="32" transform="translate(32 56)"/>
    <line id="Line_bottom" data-name="Line bottom" class="cls-7" x2="32" transform="translate(144 168)"/>
  </g>
</svg>
